<?xml version="1.0" standalone="no"?>
<!DOCTYPE svg PUBLIC "-//W3C//DTD SVG 20010904//EN"
 "http://www.w3.org/TR/2001/REC-SVG-20010904/DTD/svg10.dtd">
<svg version="1.0" xmlns="http://www.w3.org/2000/svg"
 width="500.000000pt" height="500.000000pt" viewBox="0 0 500.000000 500.000000"
 preserveAspectRatio="xMidYMid meet">
<metadata>
Created by potrace 1.11, written by Peter Selinger 2001-2013
</metadata>
<g transform="translate(0.000000,500.000000) scale(0.100000,-0.100000)"
fill="#000000" stroke="none">
<path d="M1737 4333 c-12 -20 -198 -600 -222 -688 -32 -120 -34 -129 -40 -124
-2 2 -18 89 -36 193 -34 195 -41 212 -80 187 -11 -6 -19 -7 -19 -2 0 5 -14 15
-31 24 -27 13 -38 13 -83 1 -66 -18 -76 -17 -76 3 0 31 -18 0 -74 -127 -34
-78 -51 -129 -45 -134 16 -17 28 5 57 104 19 65 33 96 45 98 18 4 18 3 -101
-333 -76 -216 -72 -205 -88 -205 -8 0 -14 2 -14 4 0 2 22 63 49 137 59 159 59
160 44 166 -7 3 -21 -25 -36 -74 -26 -81 -53 -113 -43 -52 10 61 17 557 8 563
-5 3 -5 33 0 67 7 52 5 65 -8 81 -22 23 -27 23 -39 -4 -17 -40 -41 -34 -49 12
-6 35 -9 40 -34 40 -15 0 -38 -9 -52 -19 -20 -16 -22 -22 -12 -34 15 -17 16
-417 2 -483 -15 -72 -18 -364 -5 -474 7 -58 12 -106 10 -108 -2 -2 -15 4 -29
13 -26 17 -26 17 -26 -9 0 -14 9 -43 20 -63 11 -21 20 -51 20 -67 0 -23 4 -27
19 -23 15 3 20 -2 25 -24 5 -29 6 -29 80 -29 70 0 75 2 79 23 3 21 4 21 11 2
4 -11 10 -27 12 -34 4 -10 19 0 53 35 41 42 55 69 100 189 64 167 117 285 128
285 5 0 22 -75 38 -167 23 -131 34 -172 52 -193 28 -34 44 -75 37 -94 -7 -19
21 -33 83 -41 51 -7 83 8 83 39 0 16 43 15 50 0 3 -7 13 -9 25 -4 18 7 49 106
204 641 l184 632 -23 19 c-33 27 -44 18 -54 -45 -5 -38 -13 -57 -22 -57 -18 0
-18 21 1 46 19 25 19 58 -1 75 -23 19 -124 29 -124 12 0 -21 -21 -15 -27 7 -5
20 -18 26 -26 13z m28 -85 c-3 -7 -59 -192 -124 -412 -66 -219 -123 -401 -126
-404 -33 -34 12 157 116 493 39 127 79 254 87 283 11 38 20 52 33 52 11 0 16
-5 14 -12z m-38 -612 c-3 -8 -11 -42 -18 -75 -14 -72 -36 -98 -25 -30 11 72
26 119 37 119 6 0 9 -6 6 -14z m-536 -151 c-12 -41 -40 -118 -64 -172 -45
-103 -156 -307 -163 -300 -5 5 26 109 36 122 5 6 36 80 70 165 34 85 78 190
98 235 31 67 38 76 40 53 2 -15 -6 -61 -17 -103z m439 -222 c0 -29 -34 -173
-41 -173 -12 0 -11 14 8 102 9 43 20 78 25 78 4 0 8 -3 8 -7z"/>
<path d="M3355 1958 c-27 -12 -51 -23 -53 -24 -2 -1 1 -27 7 -58 8 -45 7 -76
-9 -163 -11 -60 -20 -128 -19 -153 0 -25 -31 -183 -70 -352 -85 -366 -89 -398
-61 -443 14 -23 20 -50 20 -94 0 -64 14 -82 25 -31 10 45 25 46 25 1 0 -70 25
-94 52 -51 7 11 21 20 30 20 9 0 26 10 37 22 19 20 22 20 39 5 43 -39 132 -20
371 80 274 113 363 164 438 246 52 57 62 89 39 132 -38 70 -148 204 -191 233
l-46 30 46 38 c25 21 45 44 45 51 0 17 1 17 -62 -12 -50 -24 -118 -34 -118
-17 0 4 19 19 43 34 56 36 112 92 127 129 8 17 20 29 31 29 16 0 18 -6 15 -37
-2 -21 -7 -46 -11 -55 -5 -13 -3 -18 8 -18 18 0 26 32 29 110 2 49 -1 61 -37
110 -21 30 -52 70 -69 89 -39 42 -138 108 -176 116 -18 4 -27 11 -24 19 3 9
-7 18 -27 25 -40 14 -39 14 -39 -3 0 -17 -88 -28 -107 -14 -6 5 -43 6 -81 2
-57 -5 -75 -3 -93 10 -31 22 -74 20 -134 -6z m605 -204 c18 -18 6 -18 -58 -3
-70 17 -78 33 -12 25 30 -4 62 -14 70 -22z m-90 -15 c43 -15 90 -47 90 -61 0
-7 -5 -6 -14 1 -11 10 -16 9 -24 -4 -10 -18 -4 -65 8 -65 12 0 38 34 42 55 5
30 34 26 30 -5 -4 -39 -54 -92 -116 -124 -72 -37 -82 -29 -16 14 27 18 50 36
50 40 0 5 -45 -11 -100 -35 -127 -56 -141 -60 -138 -43 3 13 -36 14 -111 2
l-33 -5 3 85 c4 78 6 87 34 116 16 17 43 35 60 40 38 12 189 5 235 -11z m108
-491 c61 -19 19 -27 -58 -11 -96 19 -118 38 -35 29 33 -4 75 -12 93 -18z
m-111 -29 c86 -12 136 -35 141 -65 3 -23 -62 -63 -233 -142 -185 -85 -328
-123 -340 -90 -3 8 5 77 17 154 l24 139 89 6 c159 10 222 9 302 -2z m203 -78
c0 -11 -42 -43 -48 -37 -2 3 1 14 8 25 11 21 40 29 40 12z m107 -76 c20 -21
12 -39 -39 -76 -45 -33 -247 -133 -254 -126 -2 2 40 33 93 68 54 35 116 83
138 106 22 22 41 42 43 42 2 1 10 -6 19 -14z"/>
<path d="M3874 1619 c-19 -22 -19 -22 3 -10 24 12 39 31 25 31 -5 0 -17 -10
-28 -21z"/>
</g>
</svg>
